<svg width="360" height="1600" viewBox="0 0 360 1600" fill="none" xmlns="http://www.w3.org/2000/svg">
<path d="M0 0H360V579H0V0Z" fill="#C5C5C5"/>
<path d="M141.049 488.938C83.429 425.927 23.008 412.088 0 413.045V800H360V541.115C356.707 545.359 346.57 555.819 332.365 563.708C318.16 571.597 298.187 570.989 289.976 569.7C264.342 569.034 198.669 551.95 141.049 488.938Z" fill="#01001A"/>
<path d="M141.049 488.938C83.429 425.927 23.008 412.088 0 413.045V800H360V541.115C356.707 545.359 346.57 555.819 332.365 563.708C318.16 571.597 298.187 570.989 289.976 569.7C264.342 569.034 198.669 551.95 141.049 488.938Z" fill="#0016DE" fill-opacity="0.2"/>
<path d="M0 754H360V1600H0V754Z" fill="#01001A"/>
<path d="M0 754H360V1600H0V754Z" fill="#0016DE" fill-opacity="0.2"/>
</svg>
