<svg width="1440" height="2048" viewBox="0 0 1440 2048" fill="none" xmlns="http://www.w3.org/2000/svg">
<path d="M0 0H1443V1182.73H0V0Z" fill="#C5C5C5"/>
<path d="M565.371 800.538C334.411 547.842 92.2237 492.344 0 496.182V2048H1443V1009.78C1429.8 1026.8 1389.17 1068.75 1332.23 1100.39C1275.29 1132.03 1195.23 1129.59 1162.32 1124.42C1059.57 1121.75 796.331 1053.23 565.371 800.538Z" fill="#01001A"/>
<path d="M565.371 800.538C334.411 547.842 92.2237 492.344 0 496.182V2048H1443V1009.78C1429.8 1026.8 1389.17 1068.75 1332.23 1100.39C1275.29 1132.03 1195.23 1129.59 1162.32 1124.42C1059.57 1121.75 796.331 1053.23 565.371 800.538Z" fill="#0016DE" fill-opacity="0.2"/>
</svg>
