<svg width="744" height="2266" viewBox="0 0 744 2266" fill="none" xmlns="http://www.w3.org/2000/svg">
<path d="M0 0H744V789H0V0Z" fill="#C5C5C5"/>
<path d="M0 1229H744V2266H0V1229Z" fill="#01001A"/>
<path d="M0 1229H744V2266H0V1229Z" fill="#0016DE" fill-opacity="0.2"/>
<path d="M290.893 592.979C171.652 462.723 46.6138 434.115 -1 436.094V1236H744V700.837C737.186 709.61 716.208 731.233 686.812 747.541C657.415 763.849 616.081 762.593 599.089 759.927C546.041 758.551 410.134 723.234 290.893 592.979Z" fill="#01001A"/>
<path d="M290.893 592.979C171.652 462.723 46.6138 434.115 -1 436.094V1236H744V700.837C737.186 709.61 716.208 731.233 686.812 747.541C657.415 763.849 616.081 762.593 599.089 759.927C546.041 758.551 410.134 723.234 290.893 592.979Z" fill="#0016DE" fill-opacity="0.2"/>
</svg>
